# xmcd
#
# Track frame offsets:
#	150
#	15342
#	30537
#	42585
#	56032
#	68912
#	81392
#	93852
#	108887
#	125920
#	139757
#	151040
#	163930
#	174912
#
# Disc length: 2490 seconds
#
# Revision: 0
# Processed by: cddbd v1.4PL0 Copyright (c) Steve Scherf et al.
# Submitted via: dBpowerAMP V4.0
#
DISCID=b309b80e
DTITLE=Henk Wijngaard - 'n Sneeuwwitte Bruidsjurk
DYEAR=1990
DGENRE=Dutch
TTITLE0='n Sneeuwwitten bruidsjurk
TTITLE1=Belle sabine
TTITLE2=Bakker de baksteen
TTITLE3=Samen in n truck
TTITLE4=Dirkie
TTITLE5=Truckstop tilly
TTITLE6=Ik rij mijn diesel
TTITLE7=zo, zoals je bent
TTITLE8=Met z'n gitaar eb z'n liedjes
TTITLE9=Dikke diesel
TTITLE10=Er zat een tijger in de tank
TTITLE11=Zet me in 'n 18-wieler
TTITLE12=Met m'n haren in de wind
TTITLE13=De kleuter langs de autobaan
EXTD=
EXTT0=
EXTT1=
EXTT2=
EXTT3=
EXTT4=
EXTT5=
EXTT6=
EXTT7=
EXTT8=
EXTT9=
EXTT10=
EXTT11=
EXTT12=
EXTT13=
PLAYORDER=
